<?xml version="1.0" encoding="UTF-8" standalone="no"?>
<svg
   xmlns:dc="http://purl.org/dc/elements/1.1/"
   xmlns:cc="http://creativecommons.org/ns#"
   xmlns:rdf="http://www.w3.org/1999/02/22-rdf-syntax-ns#"
   xmlns:svg="http://www.w3.org/2000/svg"
   xmlns="http://www.w3.org/2000/svg"
   xmlns:xlink="http://www.w3.org/1999/xlink"
   xmlns:sodipodi="http://sodipodi.sourceforge.net/DTD/sodipodi-0.dtd"
   xmlns:inkscape="http://www.inkscape.org/namespaces/inkscape"
   version="1.1"
   x="0px"
   y="0px"
   viewBox="5 5 360 107"
   xml:space="preserve"
   width="180"
   height="54"
   id="svg5499"
   sodipodi:docname="helios-UXPerformance-inline2.svg"
   inkscape:version="0.92.2 5c3e80d, 2017-08-06"
   inkscape:export-filename="/Users/a584780/Code/helios-ux-performancetest/logo/logoPerformance.png"
   inkscape:export-xdpi="96"
   inkscape:export-ydpi="96"><metadata
     id="metadata5505"><rdf:RDF><cc:Work
         rdf:about=""><dc:format>image/svg+xml</dc:format><dc:type
           rdf:resource="http://purl.org/dc/dcmitype/StillImage" /><dc:title></dc:title></cc:Work></rdf:RDF></metadata><defs
     id="defs5503"><linearGradient
       inkscape:collect="always"
       id="linearGradient1143"><stop
         style="stop-color:#ffffff;stop-opacity:0.75"
         offset="0"
         id="stop1139" /><stop
         style="stop-color:#ffffff;stop-opacity:0.05"
         offset="1"
         id="stop1141" /></linearGradient><linearGradient
       inkscape:collect="always"
       id="linearGradient5736"><stop
         style="stop-color:#42215c;stop-opacity:1;"
         offset="0"
         id="stop5732" /><stop
         style="stop-color:#ffffff;stop-opacity:0.93333334"
         offset="1"
         id="stop5734" /></linearGradient><linearGradient
       inkscape:collect="always"
       xlink:href="#linearGradient5736"
       id="linearGradient5738"
       x1="171.95969"
       y1="-178.22038"
       x2="171.25072"
       y2="2.8239543"
       gradientUnits="userSpaceOnUse"
       gradientTransform="matrix(0.96427974,0,0,0.96427974,56.66697,435.01721)" /><clipPath
       clipPathUnits="userSpaceOnUse"
       id="clipPath2493"><g
         inkscape:label="Clip"
         id="use2495"><g
           transform="translate(0,0.11114143)"
           id="g3184"><g
             id="g3182"><path
               style="fill:#ffdf72;fill-opacity:1;stroke:none;stroke-width:1px;stroke-linecap:butt;stroke-linejoin:miter;stroke-opacity:1"
               d="m 12.200005,1049.7001 c 86.629595,-174.2593 311.088915,-170.18523 389.199995,0 47.98813,-323.08058 -434.738896,-327.78357 -389.199995,0 z"
               id="path3172"
               inkscape:connector-curvature="0"
               sodipodi:nodetypes="ccc" /><path
               style="fill:#ffb744;fill-opacity:1;stroke:none;stroke-width:0.5;stroke-linecap:butt;stroke-linejoin:miter;stroke-miterlimit:4;stroke-dasharray:none;stroke-opacity:1"
               d="M 12.200005,1049.7001 C 76.333304,846.70006 337,849.20006 401.4,1049.7001 c -7.6081,27.9501 -7.4898,26.9179 -20.4,51.3333 -95.90737,-111.29625 -241.92219,-114.25922 -347.199995,0 -11.283,-21.5533 -12.403,-21.051 -21.6,-51.3333 z"
               id="path3174"
               inkscape:connector-curvature="0"
               sodipodi:nodetypes="ccccc" /><path
               style="fill:#e9540c;fill-opacity:1;stroke:none;stroke-width:1.75;stroke-linecap:butt;stroke-linejoin:miter;stroke-miterlimit:4;stroke-dasharray:none;stroke-opacity:1"
               d="m 76.333304,1152.3667 c 102.813526,-57.5802 166.739256,-68.4633 260.666696,0 13.13135,-6.9912 35.319,-30.4114 44,-51.3333 -71.8333,-128.33329 -273.0333,-128.33329 -347.199995,0 7.0328,18.0112 26.483199,34.6103 42.533299,51.3333 z"
               id="path3176"
               inkscape:connector-curvature="0"
               sodipodi:nodetypes="ccccc" /><path
               style="fill:#d61800;fill-opacity:1;stroke:none;stroke-width:4;stroke-linecap:butt;stroke-linejoin:miter;stroke-miterlimit:4;stroke-dasharray:none;stroke-opacity:1"
               d="m 76.333304,1152.3667 c 78.417596,68.542 196.409096,60.7327 260.666696,0 -83.2,-70.8667 -172.8,-70.8667 -260.666696,0 z"
               id="path3178"
               inkscape:connector-curvature="0"
               sodipodi:nodetypes="ccc" /><path
               style="opacity:0.8479996;fill:url(#linearGradient3188);fill-opacity:1;stroke:none;stroke-width:0.97991842;stroke-miterlimit:4;stroke-dasharray:none;stroke-opacity:1"
               d="M 207,803.00084 A 200,200 0 0 0 7.0000052,1003.0008 200,200 0 0 0 50.552705,1127.5692 200,200 0 0 0 134.666,1146.3661 200,200 0 0 0 334.666,946.36611 200,200 0 0 0 291.1172,821.79967 200,200 0 0 0 207,803.00084 Z"
               id="path3180"
               inkscape:connector-curvature="0" /></g></g></g></clipPath><linearGradient
       inkscape:collect="always"
       xlink:href="#linearGradient1143"
       id="linearGradient2986"
       gradientUnits="userSpaceOnUse"
       gradientTransform="matrix(0.24129353,0,0,0.24129353,-10.7771,517.64436)"
       x1="256.66669"
       y1="11.166656"
       x2="257.66669"
       y2="396.16666" /><linearGradient
       inkscape:collect="always"
       xlink:href="#linearGradient1143"
       id="linearGradient3188"
       gradientUnits="userSpaceOnUse"
       gradientTransform="translate(-121.5,738.20006)"
       x1="256.66669"
       y1="11.166656"
       x2="257.66669"
       y2="396.16666" /></defs><sodipodi:namedview
     pagecolor="#ffffff"
     bordercolor="#666666"
     borderopacity="1"
     objecttolerance="10"
     gridtolerance="10"
     guidetolerance="10"
     inkscape:pageopacity="0"
     inkscape:pageshadow="2"
     inkscape:window-width="1621"
     inkscape:window-height="1328"
     id="namedview5501"
     showgrid="false"
     showguides="true"
     inkscape:guide-bbox="true"
     inkscape:zoom="1"
     inkscape:cx="26.618351"
     inkscape:cy="144.71456"
     inkscape:window-x="1713"
     inkscape:window-y="0"
     inkscape:window-maximized="0"
     inkscape:current-layer="svg5499"
     fit-margin-top="0"
     fit-margin-left="0"
     fit-margin-right="0"
     fit-margin-bottom="0" /><flowRoot
     xml:space="preserve"
     id="flowRoot5720"
     style="font-style:normal;font-variant:normal;font-weight:normal;font-stretch:normal;font-size:192px;line-height:1.25;font-family:'League Gothic';-inkscape-font-specification:'League Gothic';letter-spacing:0px;word-spacing:0px;fill:#000000;fill-opacity:1;stroke:none"
     transform="translate(1197.3335,-798.11918)"><flowRegion
       id="flowRegion5722"
       style="font-style:normal;font-variant:normal;font-weight:normal;font-stretch:normal;font-size:192px;font-family:'League Gothic';-inkscape-font-specification:'League Gothic'"><rect
         id="rect5724"
         width="647"
         height="220"
         x="-127"
         y="-267"
         style="font-style:normal;font-variant:normal;font-weight:normal;font-stretch:normal;font-size:192px;font-family:'League Gothic';-inkscape-font-specification:'League Gothic'" /></flowRegion><flowPara
       id="flowPara5726" /></flowRoot><flowRoot
     xml:space="preserve"
     id="flowRoot2688"
     style="font-style:normal;font-variant:normal;font-weight:normal;font-stretch:normal;font-size:40px;line-height:1.25;font-family:Museo;-inkscape-font-specification:Museo;letter-spacing:0px;word-spacing:0px;fill:#000000;fill-opacity:1;stroke:none"
     transform="translate(5,-1088)"><flowRegion
       id="flowRegion2690"><rect
         id="rect2692"
         width="622"
         height="178"
         x="847"
         y="-251" /></flowRegion><flowPara
       id="flowPara2694" /></flowRoot><g
     id="g985"><g
       id="text2962"
       style="font-style:normal;font-variant:normal;font-weight:normal;font-stretch:normal;font-size:69.58407593px;line-height:1.25;font-family:'League Gothic';-inkscape-font-specification:'League Gothic';letter-spacing:-3.01303411px;word-spacing:0px;opacity:1;fill:#00b0a8;fill-opacity:1;stroke:#c8c8c8;stroke-width:0.50073898;stroke-miterlimit:4;stroke-dasharray:none;stroke-opacity:1"
       aria-label="HELIOS"><path
         id="path862"
         style="font-style:normal;font-variant:normal;font-weight:normal;font-stretch:normal;font-family:'Keep Calm';-inkscape-font-specification:'Keep Calm';letter-spacing:-3.80431795px;fill:#00b0a8;fill-opacity:1;stroke:#c8c8c8;stroke-width:0.50073898;stroke-miterlimit:4;stroke-dasharray:none;stroke-opacity:1"
         d="M 155.55746,16.284831 H 144.77193 V 38.342983 H 122.85294 V 16.284831 h -10.78553 v 55.597676 h 10.78553 V 47.249744 h 21.91899 v 24.632763 h 10.78553 z"
         inkscape:connector-curvature="0" /><path
         id="path864"
         style="font-style:normal;font-variant:normal;font-weight:normal;font-stretch:normal;font-family:'Keep Calm';-inkscape-font-specification:'Keep Calm';letter-spacing:-3.80431795px;fill:#00b0a8;fill-opacity:1;stroke:#c8c8c8;stroke-width:0.50073898;stroke-miterlimit:4;stroke-dasharray:none;stroke-opacity:1"
         d="M 198.95833,62.488657 H 172.79472 V 47.18016 h 25.81569 V 38.482151 H 172.79472 V 25.191592 h 26.16361 v -8.906761 h -36.74039 v 55.597676 h 36.74039 z"
         inkscape:connector-curvature="0" /><path
         id="path866"
         style="font-style:normal;font-variant:normal;font-weight:normal;font-stretch:normal;font-family:'Keep Calm';-inkscape-font-specification:'Keep Calm';letter-spacing:-3.80431795px;fill:#00b0a8;fill-opacity:1;stroke:#c8c8c8;stroke-width:0.50073898;stroke-miterlimit:4;stroke-dasharray:none;stroke-opacity:1"
         d="m 241.17953,61.444896 h -26.6507 V 16.284831 h -10.99428 v 55.597676 h 37.64498 z"
         inkscape:connector-curvature="0" /><path
         id="path868"
         style="font-style:normal;font-variant:normal;font-weight:normal;font-stretch:normal;font-family:'Keep Calm';-inkscape-font-specification:'Keep Calm';letter-spacing:-3.80431795px;fill:#00b0a8;fill-opacity:1;stroke:#c8c8c8;stroke-width:0.50073898;stroke-miterlimit:4;stroke-dasharray:none;stroke-opacity:1"
         d="m 254.41352,16.284831 h -10.78553 v 55.597676 h 10.78553 z"
         inkscape:connector-curvature="0" /><path
         id="path870"
         style="font-style:normal;font-variant:normal;font-weight:normal;font-stretch:normal;font-family:'Keep Calm';-inkscape-font-specification:'Keep Calm';letter-spacing:-3.80431795px;fill:#00b0a8;fill-opacity:1;stroke:#c8c8c8;stroke-width:0.50073898;stroke-miterlimit:4;stroke-dasharray:none;stroke-opacity:1"
         d="m 318.01443,44.048877 c 0,-16.143506 -13.36014,-28.877392 -29.50365,-28.877392 -16.21309,0 -29.57323,12.664302 -29.57323,28.877392 0,16.073921 13.36014,28.877391 29.57323,28.877391 16.14351,0 29.50365,-12.873054 29.50365,-28.877391 z m -10.85512,0 c 0,10.089691 -8.35009,18.648532 -18.64853,18.648532 -10.36803,0 -18.71812,-8.558841 -18.71812,-18.648532 0,-10.159275 8.35009,-18.648532 18.71812,-18.648532 10.29844,0 18.64853,8.489257 18.64853,18.648532 z"
         inkscape:connector-curvature="0" /><path
         id="path872"
         style="font-style:normal;font-variant:normal;font-weight:normal;font-stretch:normal;font-family:'Keep Calm';-inkscape-font-specification:'Keep Calm';letter-spacing:-3.80431795px;fill:#00b0a8;fill-opacity:1;stroke:#c8c8c8;stroke-width:0.50073898;stroke-miterlimit:4;stroke-dasharray:none;stroke-opacity:1"
         d="m 359.74963,57.269851 c 0,-8.698009 -4.59255,-13.708063 -15.726,-17.604771 -8.69801,-3.131283 -11.41179,-5.149221 -11.41179,-8.698009 0,-3.131284 3.27045,-5.914647 7.4455,-5.914647 4.73172,0 7.93258,1.461266 10.71595,4.175045 l 7.51508,-7.584664 c -4.52297,-4.244629 -10.02011,-6.540904 -18.57895,-6.540904 -10.15928,0 -18.23103,6.610488 -18.23103,16.143506 0,9.811355 7.37591,14.125567 15.51725,17.117683 9.25468,3.340035 11.41179,5.079637 11.41179,8.628425 0,3.270452 -3.34004,5.775478 -7.4455,5.775478 -5.01005,0 -9.04593,-1.391681 -13.49931,-5.079637 l -7.65425,7.723832 c 6.68007,5.357974 12.03805,7.51508 21.64065,7.51508 10.71595,0 18.30061,-7.375912 18.30061,-15.656417 z"
         inkscape:connector-curvature="0" /></g><g
       transform="matrix(1.0014779,0,0,1.0014779,-10.029558,-523.93107)"
       id="g3114"><path
         sodipodi:nodetypes="ccc"
         inkscape:connector-curvature="0"
         id="path2964"
         d="m 21.4839,592.80731 c 20.9031,-42.04764 75.0637,-41.0646 93.9114,0 11.5792,-77.95726 -104.8997,-79.09206 -93.9114,0 z"
         style="fill:#ffdf72;fill-opacity:1;stroke:none;stroke-width:0.24129353px;stroke-linecap:butt;stroke-linejoin:miter;stroke-opacity:1" /><path
         sodipodi:nodetypes="ccccc"
         inkscape:connector-curvature="0"
         id="path2966"
         d="m 21.4839,592.80731 c 15.4749,-48.9826 78.3721,-48.37936 93.9114,0 -1.8358,6.74418 -1.8072,6.49511 -4.9224,12.38639 -23.1418,-26.85506 -58.3742,-27.57001 -83.7771,0 -2.7225,-5.20067 -2.9927,-5.07947 -5.2119,-12.38639 z"
         style="fill:#ffb744;fill-opacity:1;stroke:none;stroke-width:0.12064677;stroke-linecap:butt;stroke-linejoin:miter;stroke-miterlimit:4;stroke-dasharray:none;stroke-opacity:1" /><path
         sodipodi:nodetypes="ccccc"
         inkscape:connector-curvature="0"
         id="path2968"
         d="m 36.9588,617.58009 c 24.8083,-13.89373 40.2331,-16.51975 62.8972,0 3.1685,-1.68693 8.5223,-7.33807 10.6169,-12.38639 -17.3329,-30.96599 -65.8811,-30.96599 -83.7771,0 1.697,4.34599 6.3902,8.35124 10.263,12.38639 z"
         style="fill:#e9540c;fill-opacity:1;stroke:none;stroke-width:0.42226368;stroke-linecap:butt;stroke-linejoin:miter;stroke-miterlimit:4;stroke-dasharray:none;stroke-opacity:1" /><path
         sodipodi:nodetypes="ccc"
         inkscape:connector-curvature="0"
         id="path2970"
         d="m 36.9588,617.58009 c 18.9217,16.53875 47.3923,14.65441 62.8972,0 -20.0756,-17.09967 -41.6955,-17.09967 -62.8972,0 z"
         style="fill:#d61800;fill-opacity:1;stroke:none;stroke-width:0.96517414;stroke-linecap:butt;stroke-linejoin:miter;stroke-miterlimit:4;stroke-dasharray:none;stroke-opacity:1" /><path
         inkscape:connector-curvature="0"
         id="path2972"
         d="m 68.4879,533.28037 a 48.258706,48.258706 0 0 0 -48.2587,48.2587 48.258706,48.258706 0 0 0 10.5089,30.05755 48.258706,48.258706 0 0 0 20.296,4.53557 48.258706,48.258706 0 0 0 48.2587,-48.25871 48.258706,48.258706 0 0 0 -10.508,-30.05707 48.258706,48.258706 0 0 0 -20.2969,-4.53604 z"
         style="opacity:0.8479996;fill:url(#linearGradient2986);fill-opacity:1;stroke:none;stroke-width:0.23644798;stroke-miterlimit:4;stroke-dasharray:none;stroke-opacity:1" /><circle
         inkscape:export-ydpi="96"
         inkscape:export-xdpi="96"
         style="opacity:1;fill:none;fill-opacity:1;stroke:#f4f4f4;stroke-width:0.96039599;stroke-miterlimit:4;stroke-dasharray:none;stroke-opacity:1"
         id="circle2976"
         cx="68.5"
         cy="581.5"
         r="48.019802" /></g><g
       id="text2982"
       style="font-style:normal;font-variant:normal;font-weight:normal;font-stretch:normal;font-size:19.48786354px;line-height:1.25;font-family:Museo;-inkscape-font-specification:Museo;letter-spacing:0px;word-spacing:0px;fill:#5f5f5f;fill-opacity:1;stroke:none;stroke-width:0.48719653"
       aria-label="UX Performance"><path
         id="path930"
         style="letter-spacing:-1.80262053px;fill:#5f5f5f;fill-opacity:1;stroke-width:0.48719653"
         d="m 114.43192,93.7906 c 0,5.529357 3.81962,9.20347 9.45811,9.20347 5.63848,0 9.42173,-3.674113 9.42173,-9.20347 V 80.039964 c 0,-0.54566 0.29102,-0.800302 0.8003,-0.800302 h 1.56423 v -2.255395 h -2.69193 c -1.56422,0 -2.21902,0.654792 -2.21902,2.219018 v 14.405429 c 0,4.328904 -2.7283,6.984446 -6.91169,6.984446 -4.1834,0 -6.87532,-2.655542 -6.87532,-6.911692 V 79.203285 c 0,-1.564226 -0.65479,-2.219018 -2.21902,-2.219018 h -2.69192 v 2.255395 h 1.56422 c 0.50929,0 0.80031,0.254642 0.80031,0.800302 z" /><path
         id="path932"
         style="letter-spacing:-1.80262053px;fill:#5f5f5f;fill-opacity:1;stroke-width:0.48719653"
         d="m 135.64877,102.55754 h 2.91019 l 5.27471,-8.76694 c 0.8003,-1.309584 1.52785,-2.837432 1.52785,-2.837432 h 0.0727 c 0,0 0.83668,1.455093 1.63698,2.801055 l 5.3111,8.803317 h 2.91018 l -8.1849,-13.350485 5.56574,-9.021582 c 0.50928,-0.836679 1.09132,-0.945811 1.81886,-0.945811 h 0.76393 v -2.255395 h -1.34596 c -1.78249,0 -2.51004,0.327396 -3.52861,2.037131 l -3.27396,5.492979 c -0.8003,1.309585 -1.56422,2.910188 -1.56422,2.910188 h -0.0728 c 0,0 -0.87306,-1.600603 -1.63698,-2.910188 l -3.27396,-5.492979 c -1.01857,-1.709735 -1.74611,-2.037131 -3.5286,-2.037131 h -1.34597 v 2.255395 h 0.76393 c 0.72755,0 1.30958,0.109132 1.81887,0.945811 l 5.52935,9.021582 z" /><path
         id="path934"
         style="font-style:normal;font-variant:normal;font-weight:300;font-stretch:normal;font-size:36.37734604px;font-family:Museo;-inkscape-font-specification:'Museo Light';letter-spacing:-1.46158946px;fill:#5f5f5f;fill-opacity:1;stroke-width:0.48719653"
         d="m 166.35361,102.55754 h 2.54641 V 92.517393 h 5.89313 c 4.54717,0 7.89389,-3.055697 7.89389,-7.821129 0,-4.729055 -3.34672,-7.711997 -7.89389,-7.711997 h -10.80407 v 2.255395 h 2.36453 z m 2.54641,-12.295542 V 79.239662 h 5.60211 c 3.34672,0 5.56574,2.000754 5.56574,5.456602 0,3.492225 -2.21902,5.565734 -5.60211,5.565734 z" /><path
         id="path936"
         style="font-style:normal;font-variant:normal;font-weight:300;font-stretch:normal;font-size:36.37734604px;font-family:Museo;-inkscape-font-specification:'Museo Light';letter-spacing:-1.46158946px;fill:#5f5f5f;fill-opacity:1;stroke-width:0.48719653"
         d="m 182.7749,93.426827 c 0,5.638489 4.14701,9.567243 9.56724,9.567243 4.14701,0 6.80256,-2.61917 6.80256,-2.61917 l -1.20045,-1.855245 c 0,0 -2.14626,2.255395 -5.49298,2.255395 -3.78324,0 -7.02083,-2.655545 -7.09358,-7.275468 h 14.04165 c 0,0 0.0728,-0.800302 0.0728,-1.23683 0,-4.547168 -2.61917,-8.439544 -7.67562,-8.439544 -4.91094,0 -9.02158,3.601357 -9.02158,9.603619 z m 2.69192,-1.891622 c 0.61841,-3.674112 3.27396,-5.638489 6.29328,-5.638489 2.69192,0 5.02007,1.855245 5.16558,5.638489 z" /><path
         id="path938"
         style="font-style:normal;font-variant:normal;font-weight:300;font-stretch:normal;font-size:36.37734604px;font-family:Museo;-inkscape-font-specification:'Museo Light';letter-spacing:-1.46158946px;fill:#5f5f5f;fill-opacity:1;stroke-width:0.48719653"
         d="m 202.98795,102.55754 h 2.47366 v -7.711996 c 0,-1.164076 0.14551,-2.400905 0.50928,-3.56498 0.8003,-2.691924 2.7283,-4.729055 5.31109,-4.729055 0.47291,0 0.90944,0.07275 0.90944,0.07275 v -2.437282 c 0,0 -0.47291,-0.109132 -0.98219,-0.109132 -2.87381,0 -4.91094,2.109886 -5.784,4.874564 h -0.0727 c 0,0 0.0727,-0.618414 0.0727,-1.382339 v -1.236829 c 0,-1.455094 -0.69117,-2.073509 -2.21902,-2.073509 h -2.54641 v 2.146263 h 1.52785 c 0.50928,0 0.8003,0.291019 0.8003,0.800302 z" /><path
         id="path940"
         style="font-style:normal;font-variant:normal;font-weight:300;font-stretch:normal;font-size:36.37734604px;font-family:Museo;-inkscape-font-specification:'Museo Light';letter-spacing:-1.46158946px;fill:#5f5f5f;fill-opacity:1;stroke-width:0.48719653"
         d="m 214.7069,102.55754 h 2.47366 V 86.333245 h 4.6563 v -2.073509 h -4.6563 v -0.654792 c 0,-4.074263 2.69192,-4.583546 4.07426,-4.583546 0.54566,0 0.87306,0.07276 0.87306,0.07276 v -2.219018 c 0,0 -0.43653,-0.07276 -1.1277,-0.07276 -2.03713,0 -6.29328,0.763924 -6.29328,6.802564 v 0.654792 h -2.29177 v 2.073509 h 2.29177 z" /><path
         id="path942"
         style="font-style:normal;font-variant:normal;font-weight:300;font-stretch:normal;font-size:36.37734604px;font-family:Museo;-inkscape-font-specification:'Museo Light';letter-spacing:-1.46158946px;fill:#5f5f5f;fill-opacity:1;stroke-width:0.48719653"
         d="m 221.73032,93.317695 c 0,5.529357 4.32891,9.676375 9.67638,9.676375 5.31109,0 9.63999,-4.147018 9.63999,-9.676375 0,-5.420225 -4.3289,-9.494487 -9.67637,-9.494487 -5.31109,0 -9.64,4.074262 -9.64,9.494487 z m 2.54642,0 c 0,-4.147017 3.2012,-7.239092 7.12996,-7.239092 3.89237,0 7.09358,3.092075 7.09358,7.239092 0,4.256149 -3.20121,7.457355 -7.09358,7.457355 -3.92876,0 -7.12996,-3.201206 -7.12996,-7.457355 z" /><path
         id="path944"
         style="font-style:normal;font-variant:normal;font-weight:300;font-stretch:normal;font-size:36.37734604px;font-family:Museo;-inkscape-font-specification:'Museo Light';letter-spacing:-1.46158946px;fill:#5f5f5f;fill-opacity:1;stroke-width:0.48719653"
         d="m 244.21696,102.55754 h 2.47366 v -7.711996 c 0,-1.164076 0.14551,-2.400905 0.50928,-3.56498 0.8003,-2.691924 2.7283,-4.729055 5.3111,-4.729055 0.4729,0 0.90943,0.07275 0.90943,0.07275 v -2.437282 c 0,0 -0.47291,-0.109132 -0.98219,-0.109132 -2.87381,0 -4.91094,2.109886 -5.784,4.874564 h -0.0727 c 0,0 0.0727,-0.618414 0.0727,-1.382339 v -1.236829 c 0,-1.455094 -0.69117,-2.073509 -2.21902,-2.073509 h -2.54641 v 2.146263 h 1.52785 c 0.50928,0 0.8003,0.291019 0.8003,0.800302 z" /><path
         id="path946"
         style="font-style:normal;font-variant:normal;font-weight:300;font-stretch:normal;font-size:36.37734604px;font-family:Museo;-inkscape-font-specification:'Museo Light';letter-spacing:-1.46158946px;fill:#5f5f5f;fill-opacity:1;stroke-width:0.48719653"
         d="m 256.18373,102.55754 h 2.47366 v -8.657807 c 0,-0.836679 0.0727,-1.673358 0.29102,-2.437283 0.76392,-2.801055 2.98294,-5.383847 5.96588,-5.383847 3.45585,0 3.856,2.691924 3.856,5.456602 v 11.022335 h 2.47366 v -8.657807 c 0,-0.982189 0.0728,-1.855245 0.32739,-2.655547 0.72755,-2.691923 3.01932,-5.165583 5.784,-5.165583 3.34672,0 3.96513,2.47366 3.96513,5.456602 v 8.803315 c 0,1.56423 0.6548,2.21902 2.21902,2.21902 h 2.58279 v -2.14626 h -1.52785 c -0.50928,0 -0.8003,-0.25464 -0.8003,-0.800304 V 90.91679 c 0,-4.510791 -1.63698,-7.093582 -6.07501,-7.093582 -3.09208,0 -5.74762,2.109886 -6.72981,4.583545 h -0.0728 c -0.54566,-3.019319 -2.29177,-4.583545 -5.67486,-4.583545 -2.83744,0 -5.71125,2.146263 -6.62068,4.619923 h -0.0728 c 0,0 0.0728,-0.582038 0.0728,-1.309585 v -0.836679 c 0,-1.382339 -0.69117,-2.037131 -2.21902,-2.037131 h -2.54641 v 2.146263 h 1.52785 c 0.50928,0 0.8003,0.291019 0.8003,0.800302 z" /><path
         id="path948"
         style="font-style:normal;font-variant:normal;font-weight:300;font-stretch:normal;font-size:36.37734604px;font-family:Museo;-inkscape-font-specification:'Museo Light';letter-spacing:-1.46158946px;fill:#5f5f5f;fill-opacity:1;stroke-width:0.48719653"
         d="m 286.90302,97.573844 c 0,3.637736 3.16483,5.420226 6.22053,5.420226 4.58354,0 6.11139,-3.965132 6.07502,-3.965132 h 0.0727 c 0,0 -0.0364,0.545661 -0.0364,1.345962 0,1.49147 0.61842,2.18264 2.18264,2.18264 h 2.51004 v -2.14626 h -1.52785 c -0.50928,0 -0.8003,-0.25464 -0.8003,-0.800304 v -8.766941 c 0,-3.928753 -1.38234,-7.020827 -7.16634,-7.020827 -1.6006,0 -5.96588,0.54566 -5.96588,3.092074 v 1.746113 h 2.36453 V 87.49732 c 0,-1.345962 2.65554,-1.600604 3.56498,-1.600604 3.34671,0 4.72905,1.345962 4.72905,5.165584 v 0.218264 h -1.01856 c -3.16483,0 -11.20423,0.218264 -11.20423,6.29328 z m 2.54642,-0.145509 c 0,-4.11064 5.74762,-4.183395 8.62143,-4.183395 h 1.05494 v 0.836679 c 0,3.164829 -2.10988,6.802561 -5.60211,6.802561 -2.7283,0 -4.07426,-1.74611 -4.07426,-3.455845 z" /><path
         id="path950"
         style="font-style:normal;font-variant:normal;font-weight:300;font-stretch:normal;font-size:36.37734604px;font-family:Museo;-inkscape-font-specification:'Museo Light';letter-spacing:-1.46158946px;fill:#5f5f5f;fill-opacity:1;stroke-width:0.48719653"
         d="m 306.40557,102.55754 h 2.47366 V 93.7906 c 0,-0.873056 0.0728,-1.709735 0.29102,-2.473659 0.83668,-3.01932 3.52861,-5.165583 6.65706,-5.165583 3.5286,0 3.96513,2.546414 3.96513,5.420224 v 8.766938 c 0,1.56423 0.65479,2.21902 2.21902,2.21902 h 2.58279 v -2.14626 h -1.52785 c -0.50928,0 -0.8003,-0.25464 -0.8003,-0.800304 V 90.91679 c 0,-4.510791 -1.60061,-7.093582 -6.14777,-7.093582 -4.29253,0 -6.62068,2.946565 -7.27547,4.619923 h -0.0728 c 0,0 0.0728,-0.582038 0.0728,-1.309585 v -0.836679 c 0,-1.382339 -0.69117,-2.037131 -2.21902,-2.037131 h -2.54642 v 2.146263 h 1.52785 c 0.50929,0 0.8003,0.291019 0.8003,0.800302 z" /><path
         id="path952"
         style="font-style:normal;font-variant:normal;font-weight:300;font-stretch:normal;font-size:36.37734604px;font-family:Museo;-inkscape-font-specification:'Museo Light';letter-spacing:-1.46158946px;fill:#5f5f5f;fill-opacity:1;stroke-width:0.48719653"
         d="m 325.33065,93.426827 c 0,5.674866 4.14702,9.567243 9.60362,9.567243 4.69268,0 7.16634,-2.98294 7.16634,-2.98294 l -1.16408,-1.855248 c 0,0 -2.14626,2.582788 -5.89313,2.582788 -3.856,0 -7.16633,-2.801052 -7.16633,-7.311843 0,-4.438036 3.16482,-7.384601 7.09358,-7.384601 1.52785,0 4.18339,0.727547 4.18339,2.255395 v 1.054943 h 2.32815 v -1.63698 c 0,-3.01932 -4.43803,-3.892376 -6.51154,-3.892376 -5.4566,0 -9.64,4.001508 -9.64,9.603619 z" /><path
         id="path954"
         style="font-style:normal;font-variant:normal;font-weight:300;font-stretch:normal;font-size:36.37734604px;font-family:Museo;-inkscape-font-specification:'Museo Light';letter-spacing:-1.46158946px;fill:#5f5f5f;fill-opacity:1;stroke-width:0.48719653"
         d="m 343.05242,93.426827 c 0,5.638489 4.14702,9.567243 9.56724,9.567243 4.14702,0 6.80257,-2.61917 6.80257,-2.61917 l -1.20045,-1.855245 c 0,0 -2.14627,2.255395 -5.49298,2.255395 -3.78325,0 -7.02083,-2.655545 -7.09359,-7.275468 h 14.04166 c 0,0 0.0727,-0.800302 0.0727,-1.23683 0,-4.547168 -2.61917,-8.439544 -7.67562,-8.439544 -4.91094,0 -9.02158,3.601357 -9.02158,9.603619 z m 2.69193,-1.891622 c 0.61841,-3.674112 3.27396,-5.638489 6.29328,-5.638489 2.69192,0 5.02007,1.855245 5.16558,5.638489 z" /></g></g></svg>